<svg xmlns="http://www.w3.org/2000/svg" viewBox="0 0 1024 120"><path d="M43.7 70c3.6-10.8 7.2-21.7 10.8-32.6 3.6-10.9 7.2-21.8 10.7-32.5h13.4L50.5 88.7H37L8.5 4.9h13.3L43.7 70zm52-9.7c.2 2.7.8 5.4 1.8 8 1 2.6 2.4 5 4 7 1.7 2 3.6 3.6 5.8 4.9 2.2 1.3 4.7 1.9 7.3 1.9 9.1 0 15-4 17.7-12h6.8c-.7 3.1-1.9 5.9-3.4 8.4-1.6 2.5-3.4 4.5-5.6 6.2-2.2 1.7-4.6 2.9-7.3 3.8-2.6.9-5.4 1.3-8.3 1.3-4.1 0-7.8-.9-11.1-2.6-3.3-1.7-6.1-4.1-8.5-7-2.3-2.9-4.1-6.3-5.4-10.2-1.3-3.9-1.9-8-1.9-12.3 0-4 .6-7.9 1.9-11.5 1.3-3.7 3-6.9 5.4-9.6 2.3-2.7 5.1-4.9 8.4-6.6 3.3-1.7 7-2.5 11.1-2.5 3.9 0 7.5.7 10.7 2.2 3.2 1.5 6 3.5 8.2 6.1 2.2 2.6 4 5.7 5.2 9.3 1.2 3.6 1.8 7.4 1.8 11.5v3.6H95.7zm18.2-24.9c-2.5 0-4.8.5-7 1.5-2.1 1-4 2.4-5.6 4-1.6 1.7-2.9 3.6-3.9 5.8-1 2.2-1.6 4.4-1.7 6.6h36.9c-.1-2.5-.6-4.9-1.5-7-.9-2.2-2.1-4.1-3.8-5.7s-3.6-2.9-5.8-3.8c-2.3-1-4.8-1.4-7.6-1.4zm40.6-6.8h7.5v9.1c2.4-3.2 4.9-5.7 7.3-7.5 2.5-1.8 5.3-2.7 8.4-2.7.5 0 1.1 0 1.7.1.6.1 1.2.2 1.7.4v9c-1.3-.4-2.6-.7-3.8-.7-2.4 0-4.6.4-6.5 1.3-1.9.9-3.6 2.1-4.9 3.6-1.3 1.5-2.4 3.2-3 5.1-.7 1.9-1 4-1 6.1v36.3h-7.5V28.6zm45-24v32.1c3.1-3.4 6.4-5.8 9.9-7.1 3.4-1.3 7-2 10.5-2 2.8 0 5.3.5 7.7 1.4 2.3.9 4.3 2.2 6 3.8 1.7 1.6 3 3.5 3.9 5.7.9 2.2 1.4 4.5 1.4 7.1v43.1h-7.4V47c0-2.1-.4-4-1.1-5.4-.8-1.5-1.8-2.7-3-3.6-1.3-.9-2.7-1.6-4.4-2-1.7-.4-3.4-.6-5.2-.6-2.1 0-4.3.4-6.5 1.3s-4.2 2-5.9 3.6c-1.7 1.5-3.2 3.3-4.2 5.4-1.1 2.1-1.6 4.3-1.6 6.7v36.4h-7.5V4.6h7.4zM261 60.3c.2 2.7.8 5.4 1.8 8 1 2.6 2.4 5 4 7 1.7 2 3.6 3.6 5.8 4.9 2.2 1.3 4.7 1.9 7.3 1.9 9.1 0 15-4 17.7-12h6.8c-.7 3.1-1.9 5.9-3.4 8.4-1.6 2.5-3.4 4.5-5.6 6.2-2.2 1.7-4.6 2.9-7.3 3.8-2.6.9-5.4 1.3-8.3 1.3-4.1 0-7.8-.9-11.1-2.6-3.3-1.7-6.1-4.1-8.5-7-2.3-2.9-4.1-6.3-5.4-10.2-1.3-3.9-1.9-8-1.9-12.3 0-4 .6-7.9 1.9-11.5 1.3-3.7 3-6.9 5.4-9.6 2.3-2.7 5.1-4.9 8.4-6.6 3.3-1.7 7-2.5 11.1-2.5 3.9 0 7.5.7 10.7 2.2 3.2 1.5 6 3.5 8.2 6.1 2.2 2.6 4 5.7 5.2 9.3 1.2 3.6 1.8 7.4 1.8 11.5v3.6H261zm18.2-24.9c-2.5 0-4.8.5-7 1.5-2.1 1-4 2.4-5.6 4-1.6 1.7-2.9 3.6-3.9 5.8-1 2.2-1.6 4.4-1.7 6.6h36.9c-.1-2.5-.6-4.9-1.5-7-.9-2.2-2.1-4.1-3.8-5.7s-3.6-2.9-5.8-3.8c-2.3-1-4.8-1.4-7.6-1.4zm87.3 52.2h-7.4v-9.1c-1.7 2.1-3.5 3.9-5.3 5.2-1.8 1.3-3.7 2.4-5.6 3.2-1.9.8-3.8 1.3-5.6 1.5-1.9.2-3.7.3-5.5.3-5.5 0-9.7-1.6-12.8-4.8-3-3.2-4.6-7.6-4.6-13.2V27.6h7.5v41.9c0 4.2 1 7.1 3.1 8.8 2.1 1.7 4.9 2.5 8.6 2.5 2.8 0 5.4-.5 7.9-1.4 2.5-.9 4.6-2.2 6.4-3.8 1.8-1.6 3.2-3.4 4.3-5.5 1.1-2.1 1.6-4.2 1.6-6.4v-36h7.4v59.9zm65 2.5c0 4.1-.7 7.7-2.1 10.9-1.4 3.1-3.2 5.8-5.5 7.9-2.3 2.1-4.9 3.8-7.9 4.8-3 1.1-6 1.6-9.3 1.6-5.5 0-10.3-1.5-14.4-4.4-4.1-2.9-7.3-7.5-9.5-13.9h7.8c1.7 3.7 3.8 6.3 6.4 7.9 2.6 1.6 5.8 2.4 9.7 2.4 2.3 0 4.5-.4 6.6-1.3 2.1-.9 3.9-2 5.4-3.5 1.6-1.5 2.8-3.2 3.7-5.3.9-2.1 1.3-4.3 1.3-6.7V80.2c-1.3 2-2.7 3.6-4.2 4.8-1.4 1.3-2.9 2.3-4.4 3-1.5.8-3 1.3-4.6 1.5-1.5.3-3 .4-4.3.4-3.9 0-7.5-.8-10.7-2.5-3.2-1.7-5.9-3.9-8.1-6.7-2.2-2.8-3.9-6.2-5.1-10-1.2-3.8-1.7-7.9-1.7-12.2s.6-8.3 1.7-12.2c1.2-3.8 2.8-7.1 5-9.9 2.2-2.8 4.8-5 7.9-6.6 3.1-1.6 6.5-2.4 10.3-2.4 1.3 0 2.6.1 4 .2s2.9.5 4.5 1.1c1.6.6 3.2 1.6 4.8 2.9 1.6 1.3 3.2 3.1 4.8 5.4v-8.6h7.7v61.7zm-7.7-32.2c-.1-3.1-.5-6.1-1.3-8.8-.8-2.7-1.9-5.1-3.4-7.2-1.5-2.1-3.2-3.7-5.3-4.8-2.1-1.2-4.4-1.7-7-1.7-2.7 0-5.2.6-7.5 1.8-2.3 1.2-4.3 2.9-6 5-1.7 2.1-3 4.6-3.9 7.4-.9 2.8-1.4 5.8-1.4 9.1 0 3.2.5 6.3 1.4 9.1.9 2.9 2.2 5.4 3.9 7.5 1.7 2.1 3.6 3.8 6 5 2.3 1.3 4.8 1.9 7.5 1.9s5.1-.6 7.2-1.8c2.1-1.2 3.9-2.9 5.3-5s2.5-4.6 3.3-7.4c.8-2.8 1.1-5.8 1.1-9.1v-1zM453 4.6v32.1c3.1-3.4 6.4-5.8 9.9-7.1 3.4-1.3 7-2 10.5-2 2.8 0 5.3.5 7.7 1.4 2.3.9 4.3 2.2 6 3.8 1.7 1.6 3 3.5 3.9 5.7.9 2.2 1.4 4.5 1.4 7.1v43.1H485V47c0-2.1-.4-4-1.1-5.4-.8-1.5-1.8-2.7-3-3.6-1.3-.9-2.7-1.6-4.4-2-1.7-.4-3.4-.6-5.2-.6-2.1 0-4.3.4-6.5 1.3s-4.2 2-5.9 3.6c-1.7 1.5-3.2 3.3-4.2 5.4-1.1 2.1-1.6 4.3-1.6 6.7v36.4h-7.5V4.6h7.4zm61.5 55.7c.2 2.7.8 5.4 1.8 8 1 2.6 2.4 5 4 7 1.7 2 3.6 3.6 5.8 4.9 2.2 1.3 4.7 1.9 7.3 1.9 9.1 0 15-4 17.7-12h6.8c-.7 3.1-1.9 5.9-3.4 8.4-1.6 2.5-3.4 4.5-5.6 6.2-2.2 1.7-4.6 2.9-7.3 3.8-2.6.9-5.4 1.3-8.3 1.3-4.1 0-7.8-.9-11.1-2.6-3.3-1.7-6.1-4.1-8.5-7-2.3-2.9-4.1-6.3-5.4-10.2-1.3-3.9-1.9-8-1.9-12.3 0-4 .6-7.9 1.9-11.5 1.3-3.7 3-6.9 5.4-9.6 2.3-2.7 5.1-4.9 8.4-6.6 3.3-1.7 7-2.5 11.1-2.5 3.9 0 7.5.7 10.7 2.2 3.2 1.5 6 3.5 8.2 6.1 2.2 2.6 4 5.7 5.2 9.3 1.2 3.6 1.8 7.4 1.8 11.5v3.6h-44.6zm18.3-24.9c-2.5 0-4.8.5-7 1.5-2.1 1-4 2.4-5.6 4-1.6 1.7-2.9 3.6-3.9 5.8-1 2.2-1.6 4.4-1.7 6.6h36.9c-.1-2.5-.6-4.9-1.5-7-.9-2.2-2.1-4.1-3.8-5.7s-3.6-2.9-5.8-3.8c-2.3-1-4.9-1.4-7.6-1.4zm84.3-30.5v83.8h-12.5V4.9h12.5zm16.4 23.7h7.5v9c3.4-4 7-6.7 10.9-8.1 3.8-1.3 7.5-2 11-2 5.5 0 9.7 1.6 12.8 4.8 3 3.2 4.6 7.6 4.6 13.2v43.1h-7.4v-42c0-4.2-1-7.1-3.1-8.8-2.1-1.7-4.9-2.5-8.6-2.5-2.8 0-5.4.5-7.9 1.4-2.5.9-4.6 2.2-6.4 3.8-1.8 1.6-3.2 3.4-4.3 5.5-1.1 2.1-1.6 4.2-1.6 6.4v36.1h-7.5V28.6zm73-18v18h9.4v7.5h-9.4V75c0 2.7.7 4.5 2.1 5.5 1.4 1 3.2 1.5 5.3 1.5h1.7s1.1-.1 1.7-.3V89c-1 .3-2.1.5-3.3.6-1.2.1-2.4.2-3.7.2-3 0-5.7-.9-8-2.6-2.3-1.7-3.4-4.7-3.4-8.9V36.2h-9.4v-7.5h9.4v-18h7.6zm32.6 49.7c.2 2.7.8 5.4 1.8 8 1 2.6 2.4 5 4 7 1.7 2 3.6 3.6 5.8 4.9 2.2 1.3 4.7 1.9 7.3 1.9 9.1 0 15-4 17.7-12h6.8c-.7 3.1-1.9 5.9-3.4 8.4-1.6 2.5-3.4 4.5-5.6 6.2-2.2 1.7-4.6 2.9-7.3 3.8-2.6.9-5.4 1.3-8.3 1.3-4.1 0-7.8-.9-11.1-2.6-3.3-1.7-6.1-4.1-8.5-7-2.3-2.9-4.1-6.3-5.4-10.2-1.3-3.9-1.9-8-1.9-12.3 0-4 .6-7.9 1.9-11.5 1.3-3.7 3-6.9 5.4-9.6 2.3-2.7 5.1-4.9 8.4-6.6 3.3-1.7 7-2.5 11.1-2.5 3.9 0 7.5.7 10.7 2.2 3.2 1.5 6 3.5 8.2 6.1 2.2 2.6 4 5.7 5.2 9.3 1.2 3.6 1.8 7.4 1.8 11.5v3.6h-44.6zm18.3-24.9c-2.5 0-4.8.5-7 1.5-2.1 1-4 2.4-5.6 4-1.6 1.7-2.9 3.6-3.9 5.8-1 2.2-1.6 4.4-1.7 6.6h36.9c-.1-2.5-.6-4.9-1.5-7-.9-2.2-2.1-4.1-3.8-5.7s-3.6-2.9-5.8-3.8c-2.3-1-4.8-1.4-7.6-1.4zm40.6-6.8h7.5v9.1c2.4-3.2 4.9-5.7 7.3-7.5 2.5-1.8 5.3-2.7 8.4-2.7.5 0 1.1 0 1.7.1.6.1 1.2.2 1.7.4v9c-1.3-.4-2.6-.7-3.8-.7-2.4 0-4.6.4-6.5 1.3-1.9.9-3.6 2.1-4.9 3.6-1.3 1.5-2.4 3.2-3 5.1-.7 1.9-1 4-1 6.1v36.3H798V28.6zm47.2-24v10.3h-7.5V4.6h7.5zm0 24v60h-7.5v-60h7.5zm23.9 31.7c.2 2.7.8 5.4 1.8 8 1 2.6 2.4 5 4 7 1.7 2 3.6 3.6 5.8 4.9 2.2 1.3 4.7 1.9 7.3 1.9 9.1 0 15-4 17.7-12h6.8c-.7 3.1-1.9 5.9-3.4 8.4-1.6 2.5-3.4 4.5-5.6 6.2-2.2 1.7-4.6 2.9-7.3 3.8-2.6.9-5.4 1.3-8.3 1.3-4.1 0-7.8-.9-11.1-2.6-3.3-1.7-6.1-4.1-8.5-7-2.3-2.9-4.1-6.3-5.4-10.2-1.3-3.9-1.9-8-1.9-12.3 0-4 .6-7.9 1.9-11.5 1.3-3.7 3-6.9 5.4-9.6 2.3-2.7 5.1-4.9 8.4-6.6 3.3-1.7 7-2.5 11.1-2.5 3.9 0 7.5.7 10.7 2.2 3.2 1.5 6 3.5 8.2 6.1 2.2 2.6 4 5.7 5.2 9.3 1.2 3.6 1.8 7.4 1.8 11.5v3.6h-44.6zm18.3-24.9c-2.5 0-4.8.5-7 1.5-2.1 1-4 2.4-5.6 4-1.6 1.7-2.9 3.6-3.9 5.8-1 2.2-1.6 4.4-1.7 6.6h36.9c-.1-2.5-.6-4.9-1.5-7-.9-2.2-2.1-4.1-3.8-5.7s-3.6-2.9-5.8-3.8c-2.3-1-4.8-1.4-7.6-1.4zm87.3 52.2h-7.4v-9.1c-1.7 2.1-3.5 3.9-5.3 5.2-1.8 1.3-3.7 2.4-5.6 3.2-1.9.8-3.8 1.3-5.6 1.5-1.9.2-3.7.3-5.5.3-5.5 0-9.7-1.6-12.8-4.8-3-3.2-4.6-7.6-4.6-13.2V27.6h7.5v41.9c0 4.2 1 7.1 3.1 8.8 2.1 1.7 4.9 2.5 8.6 2.5 2.8 0 5.4-.5 7.9-1.4 2.5-.9 4.6-2.2 6.4-3.8 1.8-1.6 3.2-3.4 4.3-5.5 1.1-2.1 1.6-4.2 1.6-6.4v-36h7.4v59.9zm14.1-59h7.5v9.1c2.4-3.2 4.9-5.7 7.3-7.5 2.5-1.8 5.3-2.7 8.4-2.7.5 0 1.1 0 1.7.1.6.1 1.2.2 1.7.4v9c-1.3-.4-2.6-.7-3.8-.7-2.4 0-4.6.4-6.5 1.3-1.9.9-3.6 2.1-4.9 3.6-1.3 1.5-2.4 3.2-3 5.1-.7 1.9-1 4-1 6.1v36.3h-7.5V28.6z"/></svg>